<?xml version="1.0" encoding="UTF-8" standalone="no"?>
<!-- Created with Inkscape (http://www.inkscape.org/) -->

<svg
   version="1.1"
   id="svg1"
   width="1333.3333"
   height="585.38666"
   viewBox="0 0 1333.3333 585.38666"
   sodipodi:docname="FlameAcademy Logo - pure.eps"
   xmlns:inkscape="http://www.inkscape.org/namespaces/inkscape"
   xmlns:sodipodi="http://sodipodi.sourceforge.net/DTD/sodipodi-0.dtd"
   xmlns="http://www.w3.org/2000/svg"
   xmlns:svg="http://www.w3.org/2000/svg">
  <defs
     id="defs1" />
  <sodipodi:namedview
     id="namedview1"
     pagecolor="#ffffff"
     bordercolor="#000000"
     borderopacity="0.25"
     inkscape:showpageshadow="2"
     inkscape:pageopacity="0.0"
     inkscape:pagecheckerboard="0"
     inkscape:deskcolor="#d1d1d1">
    <inkscape:page
       x="0"
       y="0"
       inkscape:label="1"
       id="page1"
       width="1333.3333"
       height="585.38666"
       margin="0"
       bleed="0" />
  </sodipodi:namedview>
  <g
     id="g1"
     inkscape:groupmode="layer"
     inkscape:label="1">
    <g
       id="group-R5">
      <text
         id="text2"
         xml:space="preserve"
         transform="matrix(1.3333333,0,0,1.3333333,946.78,295.53067)"><tspan
           id="tspan2"
           style="font-variant:normal;font-weight:900;font-size:64.8847px;font-family:AlbraGrotesk-Black;writing-mode:lr-tb;fill:#f9f8f4;fill-opacity:1;fill-rule:nonzero;stroke:none"
           x="0"
           y="0"> </tspan></text>
      <path
         id="path2"
         d="m 2905.92,2545.87 h 381 v 201.48 h -381 v 127.86 h 446.86 v 222.14 h -697.41 v -923.43 h 250.55 v 371.95"
         style="fill:#f9f8f4;fill-opacity:1;fill-rule:nonzero;stroke:none"
         transform="matrix(0.13333333,0,0,-0.13333333,0,585.38667)" />
      <path
         id="path3"
         d="m 4109.62,2398.64 h -405.53 v 698.71 h -250.55 v -923.43 h 656.08 v 224.72"
         style="fill:#f9f8f4;fill-opacity:1;fill-rule:nonzero;stroke:none"
         transform="matrix(0.13333333,0,0,-0.13333333,0,585.38667)" />
      <path
         id="path4"
         d="m 4641.74,2836.46 h 1.3 l 90.4,-272.5 h -182.1 z m 162.73,-486.89 59.41,-175.65 h 266.05 l -324.17,923.43 h -317.7 l -322.88,-923.43 h 258.3 l 58.12,175.65 h 322.87"
         style="fill:#f9f8f4;fill-opacity:1;fill-rule:nonzero;stroke:none"
         transform="matrix(0.13333333,0,0,-0.13333333,0,585.38667)" />
      <path
         id="path5"
         d="m 5738.26,2405.1 228.6,299.63 h 6.45 v -530.81 h 245.39 v 923.43 h -249.26 l -254.43,-377.12 -254.42,377.12 h -247.97 v -923.43 h 245.39 v 468.82 63.28 h 5.17 l 220.84,-300.92 h 54.24"
         style="fill:#f9f8f4;fill-opacity:1;fill-rule:nonzero;stroke:none"
         transform="matrix(0.13333333,0,0,-0.13333333,0,585.38667)" />
      <path
         id="path6"
         d="m 7047.9,2396.06 h -440.4 v 149.81 h 388.74 v 201.48 H 6607.5 v 127.86 h 446.86 v 222.14 h -697.42 v -923.43 h 690.96 v 222.14"
         style="fill:#f9f8f4;fill-opacity:1;fill-rule:nonzero;stroke:none"
         transform="matrix(0.13333333,0,0,-0.13333333,0,585.38667)" />
      <path
         id="path7"
         d="m 2936.07,1412.02 90.41,272.51 h 1.29 l 90.41,-272.51 z m -63.29,533.4 -322.87,-923.43 h 258.3 l 58.12,175.64 h 322.88 l 59.4,-175.64 h 266.05 l -324.16,923.43 h -317.72"
         style="fill:#f9f8f4;fill-opacity:1;fill-rule:nonzero;stroke:none"
         transform="matrix(0.13333333,0,0,-0.13333333,0,585.38667)" />
      <path
         id="path8"
         d="m 3975.76,1751.69 c 118.82,0 173.06,-98.16 183.39,-211.81 l 255.72,54.25 c -42.62,223.42 -188.56,377.12 -437.82,377.12 -226.01,0 -455.9,-126.58 -455.9,-486.91 0,-361.62 229.89,-488.18 458.49,-488.18 262.17,0 392.61,165.31 430.07,364.2 l -253.14,52.96 c -12.92,-112.37 -63.28,-197.61 -175.64,-197.61 -107.2,0 -195.02,77.5 -195.02,269.93 0,195.01 89.11,266.05 189.85,266.05"
         style="fill:#f9f8f4;fill-opacity:1;fill-rule:nonzero;stroke:none"
         transform="matrix(0.13333333,0,0,-0.13333333,0,585.38667)" />
      <path
         id="path9"
         d="m 4826.89,1412.02 90.41,272.51 h 1.29 L 5009,1412.02 Z m -63.28,533.4 -322.88,-923.43 h 258.3 l 58.12,175.64 h 322.87 l 59.41,-175.64 h 266.05 l -324.16,923.43 h -317.71"
         style="fill:#f9f8f4;fill-opacity:1;fill-rule:nonzero;stroke:none"
         transform="matrix(0.13333333,0,0,-0.13333333,0,585.38667)" />
      <path
         id="path10"
         d="m 5884.66,1244.13 h -145.94 v 479.15 h 144.65 c 130.44,0 191.14,-94.29 191.14,-240.23 0,-130.44 -46.49,-238.92 -189.85,-238.92 z m -45.2,701.29 h -351.28 v -923.43 h 351.28 c 329.34,0 495.94,196.31 495.94,466.23 0,238.93 -135.6,457.2 -495.94,457.2"
         style="fill:#f9f8f4;fill-opacity:1;fill-rule:nonzero;stroke:none"
         transform="matrix(0.13333333,0,0,-0.13333333,0,585.38667)" />
      <path
         id="path11"
         d="m 6437.47,1021.99 h 690.96 v 222.14 h -440.4 v 149.81 h 388.74 v 201.48 h -388.74 v 127.86 h 446.85 v 222.14 h -697.41 v -923.43"
         style="fill:#f9f8f4;fill-opacity:1;fill-rule:nonzero;stroke:none"
         transform="matrix(0.13333333,0,0,-0.13333333,0,585.38667)" />
      <path
         id="path12"
         d="m 7757.41,1568.3 -254.42,377.12 h -247.97 v -923.43 h 245.39 v 468.82 63.28 h 5.17 l 220.84,-300.92 h 54.25 l 228.59,299.63 h 6.45 v -65.87 -464.94 h 245.4 v 923.43 H 8011.85 L 7757.41,1568.3"
         style="fill:#f9f8f4;fill-opacity:1;fill-rule:nonzero;stroke:none"
         transform="matrix(0.13333333,0,0,-0.13333333,0,585.38667)" />
      <path
         id="path13"
         d="m 8966.32,1945.42 -175.64,-359.05 -173.07,359.05 H 8330.9 l 331.91,-621.22 v -302.21 h 250.56 V 1324.2 L 9244,1945.42 h -277.68"
         style="fill:#f9f8f4;fill-opacity:1;fill-rule:nonzero;stroke:none"
         transform="matrix(0.13333333,0,0,-0.13333333,0,585.38667)" />
      <path
         id="path14"
         d="m 2183.35,3219.68 c -9.45,11.95 -313.74,419.11 -471.36,622.77 0,0 -0.01,-0.02 -0.02,-0.02 0,0.01 -0.01,0.02 -0.02,0.02 -0.18,-0.27 -0.28,-0.54 -0.44,-0.83 -6.82,-12.48 -24.45,-43.68 -30.03,-53.8 -0.77,-1.4 -0.62,-2.11 0.27,-3.45 2.89,-4.41 7.03,-9.63 10.64,-14.89 60.11,-87.28 64.66,-153.72 59.69,-216.53 -16.24,-205.1 -87.9,-391.83 -216.52,-626.08 -410.63,-747.85 -534.81,-1042.13 -290.89,-1378.08 195.2,-268.83 298.61,-407.95 461.49,-612.06 7.07,11.551 10.38,17.629 16.06,27.918 0.78,1.411 0.62,2.122 -0.26,3.461 -34.67,52.781 -123.45,183.671 -151.64,369.411 -114.68,755.4 692.06,1299.32 613.03,1882.16"
         style="fill:#f9f8f4;fill-opacity:1;fill-rule:nonzero;stroke:none"
         transform="matrix(0.13333333,0,0,-0.13333333,0,585.38667)" />
    </g>
  </g>
</svg>
